<mxfile host="app.diagrams.net" agent="Mozilla/5.0 (Windows NT 10.0; Win64; x64) AppleWebKit/537.36 (KHTML, like Gecko) Chrome/132.0.0.0 Safari/537.36" version="26.0.13">
  <diagram name="Page-1" id="BVZ8xIH5TRZEbGDKf4Ov">
    <mxGraphModel dx="1760" dy="1952" grid="1" gridSize="10" guides="1" tooltips="1" connect="1" arrows="1" fold="1" page="1" pageScale="1" pageWidth="850" pageHeight="1100" math="0" shadow="0">
      <root>
        <mxCell id="0" />
        <mxCell id="1" parent="0" />
        <mxCell id="TNIL7xz5pQyeKJqUV5-r-8" style="edgeStyle=orthogonalEdgeStyle;rounded=0;orthogonalLoop=1;jettySize=auto;html=1;" edge="1" parent="1" source="TNIL7xz5pQyeKJqUV5-r-1">
          <mxGeometry relative="1" as="geometry">
            <mxPoint x="150" y="150" as="targetPoint" />
          </mxGeometry>
        </mxCell>
        <mxCell id="TNIL7xz5pQyeKJqUV5-r-9" style="edgeStyle=orthogonalEdgeStyle;rounded=0;orthogonalLoop=1;jettySize=auto;html=1;" edge="1" parent="1" source="TNIL7xz5pQyeKJqUV5-r-1">
          <mxGeometry relative="1" as="geometry">
            <mxPoint x="520" y="150" as="targetPoint" />
          </mxGeometry>
        </mxCell>
        <mxCell id="TNIL7xz5pQyeKJqUV5-r-10" style="edgeStyle=orthogonalEdgeStyle;rounded=0;orthogonalLoop=1;jettySize=auto;html=1;entryX=0.75;entryY=0;entryDx=0;entryDy=0;" edge="1" parent="1" source="TNIL7xz5pQyeKJqUV5-r-1" target="TNIL7xz5pQyeKJqUV5-r-5">
          <mxGeometry relative="1" as="geometry" />
        </mxCell>
        <mxCell id="TNIL7xz5pQyeKJqUV5-r-11" style="edgeStyle=orthogonalEdgeStyle;rounded=0;orthogonalLoop=1;jettySize=auto;html=1;entryX=0.5;entryY=0;entryDx=0;entryDy=0;" edge="1" parent="1" source="TNIL7xz5pQyeKJqUV5-r-1" target="TNIL7xz5pQyeKJqUV5-r-6">
          <mxGeometry relative="1" as="geometry" />
        </mxCell>
        <mxCell id="TNIL7xz5pQyeKJqUV5-r-1" value="&lt;b&gt;&lt;font style=&quot;font-size: 23px;&quot;&gt;Root Component&lt;/font&gt;&lt;/b&gt;" style="rounded=0;whiteSpace=wrap;html=1;fillColor=#dae8fc;strokeColor=#6c8ebf;" vertex="1" parent="1">
          <mxGeometry x="795" y="30" width="225" height="60" as="geometry" />
        </mxCell>
        <mxCell id="TNIL7xz5pQyeKJqUV5-r-2" value="App.jsx" style="text;html=1;align=center;verticalAlign=middle;whiteSpace=wrap;rounded=0;" vertex="1" parent="1">
          <mxGeometry x="630" y="45" width="60" height="30" as="geometry" />
        </mxCell>
        <mxCell id="TNIL7xz5pQyeKJqUV5-r-3" value="&lt;b&gt;&lt;font style=&quot;font-size: 23px;&quot;&gt;Navbar&lt;/font&gt;&lt;/b&gt;" style="rounded=0;whiteSpace=wrap;html=1;fillColor=#dae8fc;strokeColor=#6c8ebf;" vertex="1" parent="1">
          <mxGeometry x="40" y="160" width="225" height="60" as="geometry" />
        </mxCell>
        <mxCell id="TNIL7xz5pQyeKJqUV5-r-4" value="&lt;b&gt;&lt;font style=&quot;font-size: 23px;&quot;&gt;Blog&lt;/font&gt;&lt;/b&gt;" style="rounded=0;whiteSpace=wrap;html=1;fillColor=#dae8fc;strokeColor=#6c8ebf;" vertex="1" parent="1">
          <mxGeometry x="380" y="160" width="225" height="60" as="geometry" />
        </mxCell>
        <mxCell id="TNIL7xz5pQyeKJqUV5-r-5" value="&lt;b&gt;&lt;font style=&quot;font-size: 23px;&quot;&gt;footer&lt;/font&gt;&lt;/b&gt;" style="rounded=0;whiteSpace=wrap;html=1;fillColor=#dae8fc;strokeColor=#6c8ebf;" vertex="1" parent="1">
          <mxGeometry x="740" y="160" width="225" height="60" as="geometry" />
        </mxCell>
        <mxCell id="TNIL7xz5pQyeKJqUV5-r-6" value="&lt;b&gt;&lt;font style=&quot;font-size: 23px;&quot;&gt;hello&lt;/font&gt;&lt;/b&gt;" style="rounded=0;whiteSpace=wrap;html=1;fillColor=#dae8fc;strokeColor=#6c8ebf;" vertex="1" parent="1">
          <mxGeometry x="1020" y="160" width="225" height="60" as="geometry" />
        </mxCell>
        <mxCell id="TNIL7xz5pQyeKJqUV5-r-7" value="&lt;b&gt;&lt;font style=&quot;font-size: 23px;&quot;&gt;about&lt;/font&gt;&lt;/b&gt;" style="rounded=0;whiteSpace=wrap;html=1;fillColor=#dae8fc;strokeColor=#6c8ebf;" vertex="1" parent="1">
          <mxGeometry x="1380" y="150" width="225" height="60" as="geometry" />
        </mxCell>
        <mxCell id="TNIL7xz5pQyeKJqUV5-r-12" style="edgeStyle=orthogonalEdgeStyle;rounded=0;orthogonalLoop=1;jettySize=auto;html=1;entryX=0.427;entryY=-0.067;entryDx=0;entryDy=0;entryPerimeter=0;" edge="1" parent="1" source="TNIL7xz5pQyeKJqUV5-r-1" target="TNIL7xz5pQyeKJqUV5-r-7">
          <mxGeometry relative="1" as="geometry" />
        </mxCell>
        <mxCell id="TNIL7xz5pQyeKJqUV5-r-13" value="&lt;b&gt;&lt;font style=&quot;font-size: 23px;&quot;&gt;Impression&lt;/font&gt;&lt;/b&gt;" style="rounded=0;whiteSpace=wrap;html=1;fillColor=#dae8fc;strokeColor=#6c8ebf;" vertex="1" parent="1">
          <mxGeometry x="190" y="340" width="225" height="60" as="geometry" />
        </mxCell>
        <mxCell id="TNIL7xz5pQyeKJqUV5-r-15" style="edgeStyle=orthogonalEdgeStyle;rounded=0;orthogonalLoop=1;jettySize=auto;html=1;entryX=0.596;entryY=0.1;entryDx=0;entryDy=0;entryPerimeter=0;" edge="1" parent="1" source="TNIL7xz5pQyeKJqUV5-r-4" target="TNIL7xz5pQyeKJqUV5-r-13">
          <mxGeometry relative="1" as="geometry" />
        </mxCell>
        <mxCell id="TNIL7xz5pQyeKJqUV5-r-17" value="" style="rounded=1;whiteSpace=wrap;html=1;strokeWidth=2;fillWeight=4;hachureGap=8;hachureAngle=45;fillColor=#1ba1e2;sketch=1;" vertex="1" parent="1">
          <mxGeometry x="552.5" y="-190" width="600" height="120" as="geometry" />
        </mxCell>
        <mxCell id="TNIL7xz5pQyeKJqUV5-r-16" value="&lt;b&gt;&lt;font style=&quot;font-size: 36px;&quot;&gt;React components tree&lt;/font&gt;&lt;/b&gt;" style="text;html=1;align=center;verticalAlign=middle;whiteSpace=wrap;rounded=0;" vertex="1" parent="1">
          <mxGeometry x="690" y="-170" width="317.5" height="80" as="geometry" />
        </mxCell>
      </root>
    </mxGraphModel>
  </diagram>
</mxfile>
